{"title":"Takers-AC3-BRRip 2010 TBS","uid":6051679,"size":1569471069,"categoryP":"video","categoryS":"movies","magnet":"?xt=urn:btih:84ffac4d9b40462802de7657b10c2a8a37119823&amp;dn=Takers-AC3-BRRip+2010+TBS&amp;tr=udp%3A%2F%2Ftracker.openbittorrent.com%3A80&amp;tr=udp%3A%2F%2Fopen.demonii.com%3A1337&amp;tr=udp%3A%2F%2Ftracker.coppersurfer.tk%3A6969&amp;tr=udp%3A%2F%2Fexodus.desync.com%3A6969","seeders":0,"leechers":0,"uploader":"FatFreddy30","files":-1,"time":1292758108,"description":"A group of bank robbers find their multi-million dollar plan interrupted by a hard-boiled detective...\n &lt;a href=&quot;\nhttp://www.imdb.com/title/tt1135084/&quot; rel=&quot;nofollow&quot; target=&quot;_NEW&quot;&gt;\nhttp://www.imdb.com/title/tt1135084/&lt;/a&gt;\n\nSubs: Dutch, English (srt).\n\n'Takers' gaat over een groep bankrovers, die de ene na de andere slag slaan en steeds maar weer wegkomen met de buit. Het lijkt erop dat de mannen niet gepakt kunnen worden, totdat ze van plan zijn om hun ''allerlaatste'' slag te slaan. Det. Jack Wells (Matt Dillon) zal namelijk alles in het werk stellen om ze allemaal voor eens en altijd achter slot en grendel te krijgen.\n &lt;a href=&quot;\nhttp://www.moviemeter.nl/film/60050&quot; rel=&quot;nofollow&quot; target=&quot;_NEW&quot;&gt;\nhttp://www.moviemeter.nl/film/60050&lt;/a&gt;\n\nOndertitels: Engels, Nederlands (srt).\n\nGeneral\nComplete name                    : Takers-AC3-BRRip 2010 TBS\\Takers-AC3-BRRip 2010.avi\nFormat                           : AVI\nFormat/Info                      : Audio Video Interleave\nFile size                        : 1.46 GiB\nDuration                         : 1h 47mn\nOverall bit rate                 : 1 953 Kbps\nWriting application              : VirtualDubMod 1.5.4.1 (build 2178/release)\nWriting library                  : VirtualDubMod build 2178/release\nSource                           : Takers.2010.720p.BluRay.x264-METiS\n\nVideo\nID                               : 0\nFormat                           : MPEG-4 Visual\nFormat profile                   : Simple@L3\nFormat settings, BVOP            : No\nFormat settings, QPel            : No\nFormat settings, GMC             : No warppoints\nFormat settings, Matrix          : Default (H.263)\nCodec ID                         : XVID\nCodec ID/Hint                    : XviD\nDuration                         : 1h 47mn\nBit rate                         : 1 496 Kbps\nWidth                            : 720 pixels\nHeight                           : 304 pixels\nDisplay aspect ratio             : 2.35:1\nFrame rate                       : 23.976 fps\nResolution                       : 8 bits\nColorimetry                      : 4:2:0\nScan type                        : Progressive\nBits/(Pixel*Frame)               : 0.285\nStream size                      : 1.12 GiB (77%)\nWriting library                  : XviD 1.1.2 (UTC 2006-11-01)\n\nAudio\nID                               : 1\nFormat                           : AC-3\nFormat/Info                      : Audio Coding 3\nCodec ID                         : 2000\nDuration                         : 1h 47mn\nBit rate mode                    : Constant\nBit rate                         : 448 Kbps\nChannel(s)                       : 6 channels\nChannel positions                : Front: L C R, Surround: L R, LFE\nSampling rate                    : 48.0 KHz\nStream size                      : 343 MiB (23%)\nAlignment                        : Split accross interleaves\nInterleave, duration             : 42 ms (1.00 video frame)\nInterleave, preload duration     : 500 ms\n\nBlackbeard  TBS\n\nEnjoy...","torrent":{"xt":"urn:btih:84ffac4d9b40462802de7657b10c2a8a37119823","amp;dn":"Takers-AC3-BRRip+2010+TBS","amp;tr":["udp%3A%2F%2Ftracker.openbittorrent.com%3A80","udp%3A%2F%2Fopen.demonii.com%3A1337","udp%3A%2F%2Ftracker.coppersurfer.tk%3A6969","udp%3A%2F%2Fexodus.desync.com%3A6969"],"infoHash":"84ffac4d9b40462802de7657b10c2a8a37119823","infoHashBuffer":{"type":"Buffer","data":[132,255,172,77,155,64,70,40,2,222,118,87,177,12,42,138,55,17,152,35]},"announce":[],"urlList":[]}}